<?xml version="1.0" standalone="no"?>
<!DOCTYPE svg PUBLIC "-//W3C//DTD SVG 20010904//EN"
 "http://www.w3.org/TR/2001/REC-SVG-20010904/DTD/svg10.dtd">
<svg version="1.0" xmlns="http://www.w3.org/2000/svg"
 width="900.000000pt" height="900.000000pt" viewBox="0 0 900.000000 900.000000"
 preserveAspectRatio="xMidYMid meet">
<metadata>
Created by potrace 1.16, written by Peter Selinger 2001-2019
</metadata>
<g transform="translate(0.000000,900.000000) scale(0.100000,-0.100000)"
fill="#000000" stroke="none">
<path d="M5165 8110 c-8 -14 35 -49 75 -61 19 -6 49 -19 65 -30 17 -10 38 -22
48 -25 9 -4 17 -10 17 -15 0 -5 7 -9 15 -9 8 0 15 -4 15 -8 0 -4 10 -8 23 -9
39 -2 67 7 67 22 0 8 9 15 19 15 24 0 36 29 16 36 -8 4 -31 3 -51 0 -26 -5
-44 -2 -69 13 -20 11 -37 16 -40 10 -9 -13 -36 -11 -54 4 -9 7 -36 21 -61 31
-25 10 -53 22 -62 27 -10 5 -19 5 -23 -1z"/>
<path d="M5505 7931 c-4 -10 3 -22 17 -33 13 -10 30 -25 39 -33 9 -9 30 -14
49 -13 26 2 37 -4 59 -30 14 -17 47 -55 74 -83 26 -28 47 -54 47 -58 0 -3 19
-22 42 -41 22 -19 47 -41 55 -48 7 -8 17 -12 23 -10 5 2 -22 36 -60 77 -39 41
-70 78 -70 82 0 4 -11 16 -25 27 -14 11 -25 22 -25 24 0 3 -30 35 -67 73 -56
58 -74 70 -110 75 -33 5 -43 3 -48 -9z"/>
<path d="M3695 7907 c-35 -22 -46 -37 -52 -71 -8 -48 3 -83 27 -91 11 -3 20
-13 20 -21 0 -8 1 -14 3 -14 1 0 17 -4 35 -9 27 -8 36 -6 50 10 11 11 38 21
65 24 l47 6 0 -31 c0 -19 5 -30 13 -29 6 1 25 -3 40 -9 37 -15 37 -15 37 7 0
26 47 35 60 10 20 -37 -21 -93 -75 -102 -16 -3 -6 -4 23 -3 68 4 93 25 90 78
-2 21 -6 38 -10 38 -5 0 -8 9 -8 20 0 12 -7 20 -16 20 -9 0 -22 7 -29 16 -8
12 -33 18 -86 22 -63 4 -80 1 -112 -17 -33 -18 -38 -19 -44 -5 -3 8 -16 20
-30 25 -13 5 -25 14 -27 21 -2 7 -8 28 -14 46 -10 31 -9 34 16 43 59 22 121
-15 123 -73 0 -21 1 -22 8 -3 9 22 3 55 -10 55 -5 0 -6 6 -3 14 12 32 -97 50
-141 23z"/>
<path d="M4455 7818 c-27 -15 -33 -27 -28 -49 4 -15 15 -19 54 -19 31 0 49 -4
49 -12 0 -6 13 -23 29 -37 34 -31 31 -39 -24 -65 -22 -10 -34 -21 -27 -23 28
-10 61 9 90 52 31 46 32 74 6 96 -23 19 -16 29 20 29 39 0 55 14 28 25 -30 13
-176 15 -197 3z"/>
<path d="M5827 7773 c-3 -5 9 -26 28 -46 18 -20 42 -50 51 -67 10 -16 22 -30
26 -30 4 0 8 -7 8 -15 0 -8 5 -15 10 -15 16 0 11 33 -10 60 -11 14 -20 30 -20
36 0 15 32 27 39 15 3 -5 13 -10 22 -12 28 -7 119 -117 119 -144 0 -27 25 -44
40 -29 13 13 -7 84 -23 85 -7 0 -28 21 -48 47 -37 49 -100 89 -159 103 -19 4
-45 10 -56 14 -12 4 -24 3 -27 -2z"/>
<path d="M4853 7609 c-7 -6 -26 -12 -43 -11 -24 0 -41 -9 -73 -42 -63 -64
-117 -129 -112 -134 2 -2 22 10 43 27 68 53 70 34 5 -35 -49 -51 -68 -64 -83
-59 -13 4 -22 1 -26 -9 -10 -26 15 -110 41 -140 22 -25 27 -27 42 -15 10 7 19
14 21 15 1 1 -2 14 -8 29 -8 22 -7 30 6 40 15 11 14 13 -14 26 -18 8 -32 18
-32 24 1 5 26 30 56 55 77 63 155 89 218 72 l29 -8 -44 -13 c-60 -18 -200 -92
-193 -103 8 -13 46 -10 77 7 15 8 54 17 86 21 51 6 60 4 72 -14 8 -11 28 -22
44 -25 17 -3 6 -4 -24 -4 -37 1 -55 -2 -57 -11 -1 -7 0 -8 3 -2 9 19 23 10 23
-16 0 -25 2 -26 52 -22 43 2 53 0 56 -14 2 -12 -5 -19 -23 -24 -14 -3 -30 -15
-36 -25 -8 -16 -22 -19 -87 -20 -60 0 -72 -2 -53 -10 14 -5 52 -12 85 -16 64
-6 120 -35 91 -47 -8 -3 -15 -14 -15 -24 0 -10 -5 -23 -11 -29 -32 -32 31 -44
84 -17 35 18 110 81 116 98 2 6 12 23 22 38 11 14 19 33 19 42 0 8 9 20 20 26
47 25 413 10 520 -21 19 -5 60 -14 92 -19 31 -4 71 -15 90 -23 18 -9 44 -18
56 -22 21 -6 23 -5 13 13 -8 14 -26 23 -56 28 -25 3 -48 10 -51 15 -3 5 -13 9
-22 9 -9 0 -30 7 -46 15 -43 23 -142 35 -310 40 -173 5 -220 11 -236 30 -8 10
-6 17 11 28 30 22 19 40 -35 56 -50 14 -55 24 -30 59 21 30 11 39 -22 21 -24
-13 -28 -12 -38 5 -6 10 -21 31 -33 46 -13 15 -23 32 -23 36 0 5 -15 19 -34
31 -41 26 -203 43 -223 22z m248 -140 c21 -15 29 -29 29 -50 0 -39 37 -119 55
-119 22 0 26 -15 14 -51 -18 -57 -32 -83 -63 -116 -34 -37 -61 -44 -53 -13 3
12 -4 30 -18 47 -26 30 -24 40 11 53 24 9 33 30 14 30 -5 0 -10 7 -10 16 0 11
-6 14 -20 9 -24 -7 -26 7 -5 25 36 30 9 53 -49 43 -21 -3 -36 -1 -36 4 0 13
45 33 74 33 19 0 23 6 24 32 0 21 -6 37 -19 46 -21 15 -17 32 8 32 8 0 28 -9
44 -21z"/>
<path d="M2233 6694 c-7 -7 -13 -18 -13 -24 0 -5 -4 -10 -10 -10 -5 0 -10 -7
-10 -15 0 -8 -4 -15 -10 -15 -5 0 -10 -7 -10 -15 0 -8 -4 -15 -10 -15 -5 0
-10 -5 -10 -11 0 -6 -13 -30 -30 -54 -16 -24 -30 -47 -30 -50 0 -8 -54 -100
-107 -182 -18 -29 -33 -55 -33 -58 0 -3 -15 -29 -33 -58 -18 -29 -43 -73 -56
-99 -13 -27 -27 -48 -31 -48 -4 0 -10 -8 -14 -17 -3 -10 -21 -45 -41 -78 -19
-33 -53 -96 -76 -140 -50 -97 -59 -109 -72 -96 -10 10 -6 24 24 83 5 10 9 22
9 27 0 6 11 21 24 36 13 14 26 43 30 66 3 22 11 49 16 59 6 11 14 29 20 40 13
25 13 60 0 60 -5 0 -10 -11 -10 -25 0 -14 -4 -25 -10 -25 -5 0 -10 -11 -10
-25 0 -14 -4 -25 -10 -25 -5 0 -10 -9 -10 -20 0 -11 -3 -20 -7 -20 -10 0 -33
-49 -33 -69 0 -9 -9 -27 -20 -41 -11 -14 -20 -34 -20 -46 0 -12 -4 -34 -9 -50
-5 -16 -19 -63 -32 -104 -21 -70 -66 -165 -94 -200 -25 -31 -44 -98 -38 -134
3 -20 10 -36 15 -36 5 0 6 5 3 11 -6 9 3 35 45 134 30 73 43 97 64 123 14 15
35 48 48 73 32 59 52 93 58 99 8 8 28 43 47 80 9 19 20 37 23 40 4 3 24 41 45
85 22 44 47 91 56 105 30 46 159 273 159 282 0 4 5 8 10 8 6 0 10 6 10 14 0 8
3 16 8 18 4 2 23 35 43 73 20 39 52 99 71 135 19 36 44 81 54 100 11 19 23 38
28 41 5 4 7 11 5 17 -2 6 -9 5 -16 -4z"/>
<path d="M8124 6331 c-22 -4 -53 -17 -69 -29 -15 -12 -34 -22 -41 -22 -8 0
-14 -4 -14 -10 0 -5 5 -10 11 -10 27 0 -6 -19 -44 -25 -76 -12 -75 -11 -69
-60 7 -64 -27 -57 -43 8 -15 59 -45 16 -45 -67 0 -38 -7 -48 -42 -63 -35 -15
-43 -46 -24 -85 21 -41 20 -67 -4 -149 -16 -52 -18 -76 -11 -101 l9 -33 1 30
c1 17 8 39 16 49 8 11 15 26 15 35 0 8 7 22 16 32 19 22 44 117 44 174 0 22 4
46 9 54 14 21 31 3 31 -33 0 -30 2 -33 25 -28 29 5 29 5 13 48 -19 55 1 81 86
108 15 5 16 9 5 22 -29 35 46 45 141 19 70 -19 73 -19 58 4 -6 11 -27 22 -45
26 -42 8 -42 18 2 45 35 22 49 47 19 36 -12 -4 -14 -1 -9 14 4 11 5 19 3 19
-2 -1 -21 -5 -44 -8z"/>
<path d="M6708 5796 c-10 -8 -42 -11 -83 -10 -59 3 -64 2 -50 -12 8 -9 12 -20
9 -26 -3 -5 4 -20 17 -34 l22 -24 -24 -1 c-13 -1 -31 -2 -39 -3 -20 -1 -136
-128 -143 -156 -9 -35 30 -24 58 17 14 21 25 41 25 45 0 5 12 22 27 38 18 21
36 30 57 30 37 0 68 24 90 67 9 17 25 38 37 47 12 8 20 19 18 25 -3 6 -10 5
-21 -3z"/>
<path d="M7244 5634 c13 -34 11 -39 -16 -39 -16 1 -28 -2 -28 -5 0 -4 -19 -17
-42 -30 -57 -32 -78 -51 -78 -72 0 -14 8 -18 33 -18 29 1 30 2 15 14 -25 18
-22 33 6 40 14 3 32 13 40 21 13 13 20 14 37 4 22 -11 22 -12 -10 -40 -19 -16
-30 -33 -26 -40 4 -6 3 -14 -3 -18 -13 -8 6 -52 26 -59 9 -3 11 3 6 22 -4 17
-2 26 6 26 7 0 9 8 5 20 -5 16 1 23 29 37 20 9 36 20 36 23 0 4 14 21 30 38
35 37 37 42 11 35 -14 -3 -23 3 -33 23 -15 33 -56 49 -44 18z"/>
<path d="M7320 5511 c0 -5 20 -42 45 -82 51 -82 53 -94 25 -109 -11 -6 -20
-16 -20 -22 0 -9 3 -9 12 0 7 7 18 12 26 12 11 0 13 -12 10 -55 -5 -59 0 -65
52 -65 21 0 33 -8 49 -35 21 -37 41 -46 41 -20 0 9 -6 26 -14 38 -27 43 -66
112 -88 157 -12 25 -30 52 -40 61 -10 9 -18 26 -18 38 0 25 -49 91 -67 91 -7
0 -13 -4 -13 -9z"/>
<path d="M7240 5213 c-12 -16 -28 -41 -36 -58 -34 -68 -39 -75 -62 -75 -33 0
-62 -18 -62 -37 0 -9 -8 -25 -17 -35 -15 -17 -15 -20 12 -48 17 -17 35 -28 44
-25 7 3 22 -1 31 -10 15 -14 19 -13 42 8 35 32 49 122 22 141 -15 12 -16 17
-4 45 7 17 18 35 25 39 17 10 45 71 35 77 -5 3 -18 -7 -30 -22z"/>
<path d="M7776 5149 c-3 -13 -8 -42 -11 -64 -10 -71 -11 -80 -19 -100 -4 -11
-12 -32 -18 -47 -8 -20 -17 -28 -35 -28 -20 0 -24 -4 -18 -17 16 -37 16 -69 2
-81 -8 -7 -13 -22 -10 -32 3 -11 0 -20 -6 -20 -6 0 -11 -11 -11 -25 0 -14 -4
-25 -10 -25 -5 0 -10 -11 -10 -25 0 -14 -4 -25 -10 -25 -5 0 -10 -11 -10 -24
0 -13 -3 -26 -7 -28 -10 -4 -43 -98 -43 -120 0 -10 -4 -18 -10 -18 -5 0 -10
-11 -10 -25 0 -14 -4 -25 -10 -25 -5 0 -10 -9 -10 -20 0 -11 -4 -28 -9 -38
-26 -52 -33 -71 -27 -81 4 -6 2 -11 -3 -11 -6 0 -11 -8 -11 -18 0 -10 -4 -22
-8 -27 -5 -6 -15 -30 -22 -55 -8 -25 -23 -51 -33 -59 -13 -9 -18 -22 -15 -43
3 -16 1 -31 -4 -34 -4 -3 -8 -16 -8 -29 0 -13 -4 -27 -10 -30 -5 -3 -10 -15
-10 -26 0 -10 -4 -19 -10 -19 -5 0 -10 -11 -10 -25 0 -14 -4 -25 -10 -25 -5 0
-10 -9 -10 -19 0 -11 -4 -22 -9 -25 -5 -4 -12 -24 -16 -46 -4 -22 -11 -42 -16
-46 -5 -3 -9 -16 -9 -30 0 -13 -4 -24 -10 -24 -5 0 -10 -9 -10 -20 0 -11 -4
-28 -9 -38 -19 -34 -41 -90 -41 -101 0 -6 -4 -20 -10 -31 -5 -11 -14 -29 -20
-40 -5 -11 -10 -27 -10 -35 0 -8 -4 -15 -8 -15 -8 0 -47 -117 -45 -137 0 -7
-2 -13 -6 -13 -4 0 -18 -33 -31 -72 -12 -40 -26 -82 -31 -93 -4 -11 -11 -34
-14 -51 -3 -18 -19 -53 -36 -78 -16 -26 -29 -51 -29 -56 0 -6 -3 -10 -7 -10
-5 0 -17 -20 -28 -45 -11 -25 -22 -45 -26 -45 -3 0 -18 -21 -32 -47 -15 -27
-43 -75 -62 -108 -19 -33 -46 -83 -59 -111 -13 -28 -40 -67 -60 -88 -29 -29
-34 -38 -22 -42 14 -5 13 -11 -6 -38 -12 -17 -25 -33 -28 -36 -8 -8 -30 -48
-92 -168 -31 -62 -64 -122 -73 -134 -18 -27 -20 -44 -2 -26 19 20 69 98 92
143 24 49 75 127 89 137 6 4 8 8 4 8 -4 0 6 23 22 50 17 28 30 54 30 58 0 4
14 23 30 41 17 18 29 38 27 45 -2 6 13 36 33 66 20 30 47 77 58 103 38 85 71
114 73 63 0 -14 5 -7 15 19 9 22 25 60 36 85 11 25 26 56 32 70 6 14 18 33 27
43 9 9 22 30 29 45 8 15 23 37 34 50 11 12 16 22 11 22 -4 0 0 9 10 20 10 11
15 20 11 20 -4 0 5 17 21 38 41 55 63 97 63 124 0 13 6 32 14 43 7 11 26 43
41 70 58 103 65 115 89 154 15 22 26 44 26 49 0 5 9 17 20 27 11 10 20 25 20
33 0 9 6 23 14 31 13 16 36 75 36 93 0 5 -13 -4 -30 -20 -16 -17 -30 -35 -30
-41 0 -6 -11 -29 -25 -51 -14 -22 -25 -44 -25 -50 0 -5 -4 -10 -10 -10 -5 0
-10 -4 -10 -10 0 -5 -25 -50 -55 -101 -30 -50 -55 -94 -55 -97 0 -3 -7 -13
-15 -22 -8 -9 -32 -52 -54 -96 -21 -43 -46 -88 -55 -99 -40 -52 -4 66 55 177
5 10 9 25 9 33 0 8 5 15 10 15 6 0 10 7 10 15 0 8 4 15 10 15 5 0 9 12 9 28 0
40 12 92 22 92 5 0 9 11 9 25 0 14 5 25 10 25 6 0 10 7 10 16 0 22 33 118 43
122 4 2 7 15 7 28 0 13 5 24 10 24 6 0 10 11 10 25 0 14 4 25 9 25 9 0 25 56
22 77 -1 6 3 14 9 18 5 3 10 13 10 22 0 8 9 26 20 40 11 14 20 36 20 49 0 14
4 32 9 42 16 32 43 101 46 117 2 13 14 46 26 67 5 10 9 27 9 38 0 11 5 20 10
20 6 0 10 11 10 24 0 14 4 27 9 30 5 4 12 24 16 46 4 22 11 40 16 40 5 0 9 11
9 25 0 14 5 25 10 25 6 0 10 11 10 25 0 14 5 25 10 25 6 0 10 11 10 25 0 14 4
25 9 25 5 0 11 18 15 40 3 23 10 49 15 58 17 34 30 67 33 86 6 36 23 26 53
-31 17 -31 36 -58 43 -61 14 -4 16 29 3 44 -4 5 -23 36 -40 68 -25 46 -30 64
-23 80 22 49 31 73 36 99 4 15 18 53 31 83 l25 56 35 -36 c19 -20 35 -42 35
-50 0 -12 40 -36 61 -36 6 0 -10 20 -36 45 -25 25 -43 49 -40 55 9 15 -37 51
-58 44 -11 -4 -23 -1 -28 7 -5 9 -9 6 -13 -12z"/>
<path d="M7362 4945 c-18 -25 -32 -48 -32 -50 0 -3 -12 -19 -27 -35 -37 -40
-143 -249 -136 -267 3 -8 16 -13 32 -11 31 4 67 62 77 126 3 23 10 42 14 42
12 0 60 89 60 110 0 10 15 40 34 68 31 45 36 62 16 62 -3 0 -21 -20 -38 -45z"/>
<path d="M1077 4713 c-8 -24 -40 -77 -49 -81 -5 -2 -8 -9 -8 -16 0 -6 -12 -29
-26 -50 l-27 -39 27 -51 c50 -96 88 -161 97 -164 5 -2 9 -10 9 -18 0 -9 4 -12
10 -9 8 5 -73 181 -90 195 -23 18 -11 80 20 110 3 3 14 24 24 48 40 90 62 77
45 -29 -12 -81 -2 -126 27 -115 9 4 23 1 30 -5 15 -12 17 -9 28 43 5 22 3 26
-9 22 -16 -7 -18 -2 -15 67 1 31 -4 50 -14 58 -9 8 -16 19 -16 26 0 27 -55 33
-63 8z"/>
<path d="M7789 4668 c-19 -35 -15 -139 7 -186 10 -23 22 -42 27 -42 6 0 12 81
8 123 -3 28 22 20 41 -14 16 -27 16 -33 3 -59 -8 -16 -19 -32 -25 -35 -16 -10
-12 -45 5 -45 8 0 15 7 15 15 0 8 4 15 9 15 5 0 11 8 14 18 3 9 13 29 23 43
16 25 16 27 -4 50 -12 12 -22 28 -22 35 0 7 -4 14 -9 16 -4 2 -20 22 -35 46
-30 48 -40 51 -57 20z"/>
<path d="M1765 4591 c-3 -6 -14 -11 -24 -11 -28 0 -50 -32 -66 -94 -8 -31 -30
-79 -49 -106 -22 -32 -32 -57 -29 -70 3 -11 0 -20 -6 -20 -6 0 -19 -18 -28
-40 -10 -22 -21 -40 -25 -40 -5 0 -8 -7 -8 -15 0 -21 6 -19 48 13 50 38 81 70
74 76 -8 9 35 46 44 38 4 -4 4 -2 0 5 -4 7 -2 20 3 30 21 37 51 113 51 127 0
9 4 16 9 16 4 0 11 21 15 47 6 47 3 63 -9 44z"/>
<path d="M732 4483 c-16 -29 -15 -50 2 -56 7 -3 21 -29 30 -59 10 -29 26 -65
37 -80 10 -15 19 -30 19 -33 0 -27 113 -125 128 -111 7 8 -28 46 -43 46 -6 0
-22 12 -34 26 -17 20 -20 28 -10 34 16 10 -1 53 -42 110 -16 22 -29 44 -29 49
0 4 -8 19 -19 32 -10 13 -20 33 -23 44 -4 19 -4 19 -16 -2z"/>
<path d="M1739 4243 c-8 -16 -21 -35 -31 -43 -15 -15 -15 -18 1 -54 10 -21 24
-42 31 -46 11 -7 11 -14 0 -39 -7 -17 -18 -35 -24 -39 -11 -6 -56 -85 -56 -97
0 -3 9 -5 19 -5 25 0 61 50 61 83 0 14 5 29 10 32 6 3 10 14 10 24 0 19 27 33
84 46 22 5 27 10 23 27 -4 13 1 26 14 37 18 16 18 17 -10 49 -21 23 -37 32
-60 32 -17 0 -31 5 -31 10 0 21 -27 9 -41 -17z"/>
<path d="M1280 3982 c0 -4 5 -13 12 -20 18 -18 -6 -40 -26 -23 -21 18 -36 5
-36 -30 0 -20 -8 -37 -22 -49 -26 -21 -16 -40 11 -23 16 10 20 9 24 -8 6 -23
30 -25 51 -3 14 13 14 19 1 43 -10 20 -11 31 -3 39 14 14 48 -16 48 -44 0 -12
4 -24 8 -26 18 -7 63 -78 64 -100 1 -13 5 -28 10 -35 5 -6 6 -23 2 -37 -6 -25
-5 -26 27 -20 39 8 49 15 32 21 -7 3 -13 13 -13 23 0 10 6 21 13 23 6 3 2 6
-10 6 -17 1 -28 13 -44 49 -11 26 -26 52 -33 57 -6 6 -29 45 -51 88 -21 42
-45 77 -52 77 -7 0 -13 -4 -13 -8z"/>
<path d="M1720 3813 c0 -5 7 -21 15 -37 12 -23 13 -32 3 -44 -7 -8 -13 -22
-13 -31 0 -8 -9 -20 -20 -26 -11 -5 -32 -21 -47 -35 -14 -14 -41 -37 -58 -52
-27 -24 -30 -30 -20 -43 11 -14 15 -14 32 2 11 10 27 18 36 18 9 1 29 2 44 3
15 1 35 10 45 21 10 10 30 21 45 25 32 7 88 53 88 71 0 7 -10 15 -22 19 -33 8
-48 7 -48 -4 0 -5 9 -10 20 -10 31 0 24 -24 -12 -42 -48 -24 -76 -28 -89 -12
-9 11 -8 14 3 14 25 0 65 54 62 83 -4 37 -64 112 -64 80z"/>
<path d="M1208 3470 c-3 -8 -12 -35 -19 -60 -7 -25 -23 -60 -36 -78 -13 -19
-24 -56 -28 -90 -9 -91 -19 -137 -30 -137 -5 0 -11 17 -13 38 -3 32 -6 37 -29
37 -23 0 -25 -3 -19 -27 18 -73 19 -83 2 -83 -9 0 -16 -5 -16 -10 0 -6 -18
-18 -40 -27 -41 -18 -48 -27 -30 -38 44 -27 -64 -45 -129 -21 -25 9 -54 16
-63 16 -28 0 -21 -19 10 -26 15 -4 38 -15 51 -26 22 -17 22 -18 4 -18 -11 0
-26 -7 -33 -15 -7 -8 -19 -15 -26 -15 -8 0 -14 -3 -14 -7 1 -19 18 -31 53 -37
32 -6 44 -3 70 17 18 13 46 27 62 32 l30 8 -29 12 -28 12 23 6 c13 4 40 7 60
7 49 0 75 20 60 48 -6 12 -8 29 -3 42 8 21 9 21 25 5 9 -9 17 -25 17 -36 0
-18 25 -37 35 -27 2 2 8 32 12 68 7 56 11 65 38 80 32 18 35 35 19 124 -4 24
0 60 10 100 16 56 19 163 4 126z"/>
<path d="M3906 2145 c-22 -8 -49 -24 -62 -37 -12 -13 -34 -34 -49 -47 -14 -13
-35 -43 -45 -67 -11 -23 -26 -46 -32 -51 -26 -16 -193 -31 -263 -22 -214 25
-254 32 -290 49 -38 17 -120 36 -138 32 -5 -2 -24 3 -43 10 -18 6 -36 9 -40 5
-12 -11 23 -36 57 -40 19 -2 47 -9 62 -16 16 -6 34 -11 40 -11 7 0 22 -7 33
-15 26 -18 150 -32 354 -40 85 -3 160 -11 167 -17 19 -16 16 -35 -8 -41 -27
-7 -20 -31 10 -35 15 -2 21 -9 17 -18 -3 -8 -1 -14 4 -14 6 0 10 5 10 11 0 8
4 8 15 -1 8 -6 19 -9 25 -5 16 10 12 -31 -5 -45 -8 -7 -15 -23 -15 -37 0 -21
3 -23 23 -17 12 4 25 11 29 17 4 6 10 -1 13 -16 4 -14 24 -42 45 -61 30 -27
49 -35 92 -40 118 -12 167 -14 173 -8 3 4 23 8 43 9 20 1 38 7 40 13 2 5 10
10 18 10 8 0 22 6 30 13 36 29 125 125 149 161 26 39 42 116 26 126 -5 3 -11
14 -13 25 -7 42 -55 72 -83 52 -13 -10 -14 -18 -6 -40 7 -17 7 -27 1 -27 -21
0 -9 -31 15 -40 24 -9 36 -40 15 -40 -6 0 -35 -20 -64 -44 -69 -56 -139 -81
-185 -65 -27 9 -35 9 -42 -2 -7 -11 -9 -11 -9 -1 0 7 6 14 13 16 53 14 102 34
166 69 56 31 70 42 58 49 -11 5 -41 0 -88 -17 -77 -27 -114 -31 -124 -15 -3 5
-15 15 -25 20 -16 9 -24 6 -42 -15 -12 -14 -31 -25 -42 -25 -50 0 -66 -11 -60
-39 3 -14 15 -34 27 -44 27 -24 9 -44 -24 -27 -42 22 -58 42 -65 79 -10 62
-15 73 -46 101 -29 27 -29 29 -17 71 7 24 24 59 38 78 14 19 28 38 31 42 3 3
16 10 29 14 22 7 23 5 17 -19 -5 -19 -1 -31 14 -46 27 -27 25 -48 -5 -56 -15
-4 -23 -11 -20 -18 3 -6 8 -19 11 -29 4 -10 13 -16 20 -13 16 6 19 -10 4 -19
-5 -3 -10 -15 -10 -27 0 -19 4 -20 47 -13 25 4 52 13 60 21 8 8 23 14 33 14
10 0 22 5 26 11 11 19 -15 33 -64 34 -42 0 -47 3 -50 24 -3 21 -1 23 21 17 20
-5 28 0 42 20 16 25 20 26 81 21 74 -7 88 9 17 18 -120 15 -138 20 -141 39 -2
10 2 22 9 27 8 4 14 16 14 26 0 15 11 19 60 23 49 4 54 6 30 12 -16 3 -41 6
-55 6 -14 1 -34 3 -45 6 -11 3 -38 -2 -59 -9z"/>
<path d="M2812 1651 c-19 -12 -4 -60 27 -91 14 -14 42 -44 62 -67 25 -29 47
-44 73 -48 20 -4 36 -11 36 -16 0 -5 11 -9 25 -9 13 0 36 -5 50 -12 43 -19 42
2 -2 41 -24 20 -43 42 -43 48 0 7 -11 29 -25 49 -21 31 -25 33 -25 15 0 -12 9
-31 20 -43 22 -24 26 -43 10 -53 -5 -3 -15 5 -22 19 -6 14 -15 26 -20 26 -4 0
-8 5 -8 11 0 7 -8 19 -18 28 -9 9 -24 29 -32 44 -8 16 -16 23 -18 17 -3 -7 0
-15 5 -19 6 -3 14 -17 18 -31 4 -14 21 -37 36 -53 32 -30 35 -37 17 -37 -31 1
-125 112 -134 158 -7 34 -11 37 -32 23z"/>
<path d="M4425 1581 c-3 -6 -14 -11 -24 -11 -23 0 -51 -40 -72 -102 -15 -43
-14 -47 3 -59 10 -7 18 -16 18 -19 0 -3 -31 -4 -70 -2 -38 2 -70 7 -70 12 0
11 -61 -3 -63 -15 -1 -6 29 -11 70 -13 47 -2 75 -8 83 -17 9 -11 35 -15 92
-15 65 0 85 4 109 21 16 11 29 23 29 27 -1 21 -22 34 -60 38 -34 3 -50 11 -71
36 -16 18 -28 38 -29 43 0 20 58 45 105 45 47 0 54 13 13 23 -13 2 -30 8 -39
11 -10 4 -20 3 -24 -3z"/>
<path d="M4964 1498 c1 -15 -6 -22 -26 -25 -23 -3 -28 0 -29 19 -1 21 -1 21
-11 -4 -8 -24 -6 -32 20 -58 17 -16 37 -30 45 -30 9 0 17 -4 19 -10 2 -5 12
-11 23 -13 11 -1 25 -6 32 -10 6 -4 14 -3 18 3 3 5 13 10 22 10 11 0 14 -6 10
-21 -3 -12 -1 -33 5 -48 6 -14 10 -31 10 -37 -2 -12 1 -13 81 -20 38 -4 63 -2
73 6 8 7 17 10 21 7 3 -4 12 5 20 19 14 28 18 134 5 134 -4 0 -22 14 -40 30
-39 35 -81 40 -100 10 -18 -29 -99 -29 -104 0 -2 12 -6 19 -9 18 -3 -2 -12 2
-20 9 -8 6 -26 16 -40 21 -22 9 -25 8 -25 -10z m206 -77 c0 -5 15 -18 34 -29
25 -15 35 -29 39 -53 5 -35 -8 -63 -24 -53 -5 3 -17 1 -26 -5 -19 -10 -50 2
-70 28 -21 28 -16 87 10 104 25 18 37 21 37 8z"/>
<path d="M3463 1210 c4 -16 0 -20 -21 -20 -31 -1 -72 -31 -72 -54 0 -9 7 -16
15 -16 8 0 15 7 15 15 0 8 5 15 10 15 6 0 13 -7 16 -15 8 -20 20 -19 45 6 22
22 55 19 75 -7 9 -11 18 -12 37 -5 19 7 30 7 39 -2 20 -18 123 -67 143 -67 11
0 15 5 11 16 -3 9 -6 18 -6 20 0 2 -9 4 -20 4 -11 0 -20 5 -20 10 0 6 -8 10
-18 10 -10 0 -22 4 -27 9 -6 5 -28 19 -50 32 -131 74 -182 89 -172 49z"/>
</g>
</svg>
